<?xml version="1.0" encoding="utf-8"?>
<!-- Svg Vector Icons : http://www.onlinewebfonts.com/icon -->
<!DOCTYPE svg PUBLIC "-//W3C//DTD SVG 1.1//EN" "http://www.w3.org/Graphics/SVG/1.1/DTD/svg11.dtd">
<svg version="1.1" xmlns="http://www.w3.org/2000/svg" xmlns:xlink="http://www.w3.org/1999/xlink" x="0px" y="0px" viewBox="0 0 256 256" enable-background="new 0 0 256 256" xml:space="preserve">
<metadata> Svg Vector Icons : http://www.onlinewebfonts.com/icon </metadata>
<g><g><g><path fill="#000000" d="M183,79.4c0-44.8-19.5-69.4-55-69.4c-34.4,0-55,25.9-55,69.4c0,38.3,24.7,69.4,55,69.4C158.4,148.8,183,117.7,183,79.4z M86.1,79.4c0-21,5.4-56.3,41.9-56.3c27.8,0,41.9,19,41.9,56.3c0,31-18.8,56.3-41.9,56.3C104.9,135.7,86.1,110.4,86.1,79.4z"/><path fill="#000000" d="M213.4,153.3c-5.7-4.1-12.7-6.1-21-6.1c-10.8,0-23.3,3.6-35.3,10.1c-10,5.5-19.7,8.3-29.1,8.3c0,0,0,0,0,0h-0.5c-9,0-18.7-2.8-28.7-8.3c-11.9-6.6-24.4-10.1-35.3-10.1c-8.3,0-15.3,2.1-21,6.1c-14.7,10.6-21.8,35-16.1,55.6c5.8,20.8,36,37.1,68.8,37.1h65.5c32.8,0,63-16.3,68.8-37.1C235.2,188.3,228.1,163.9,213.4,153.3z M216.9,205.4c-4.1,14.9-29.8,27.5-56.2,27.5H95.2c-26.3,0-52-12.6-56.2-27.5c-4.2-15.1,0.9-34.1,11.1-41.4c3.4-2.4,7.9-3.7,13.4-3.7c8.5,0,19.1,3.1,29,8.5c12,6.6,23.7,9.9,35,9.9h0.4h0.5c11.2,0,23-3.3,35-9.9c9.9-5.4,20.4-8.5,29-8.5c5.5,0,10,1.2,13.4,3.7C216,171.3,221.1,190.3,216.9,205.4z"/></g><g></g><g></g><g></g><g></g><g></g><g></g><g></g><g></g><g></g><g></g><g></g><g></g><g></g><g></g><g></g></g></g>
</svg>